<svg xmlns="http://www.w3.org/2000/svg" viewBox="0 0 100 100" fill="none">
  <style>
    .top-wave {
      fill: #023e63;
    }
    @media (prefers-color-scheme: dark) {
      .top-wave {
        fill: #f8fafc;
      }
    }
  </style>
  <g transform="translate(0, 29)">
    <!-- Bottom wave: Teal -->
    <path d="M99.9234 32.7937C90.8917 25.56 83.2504 22.4049 75.8685 22.8797C69.2818 23.2983 63.7326 26.544 57.856 29.9796C45.0355 37.4767 30.4418 45.9579 0.310373 26.3282C0.216824 26.2678 0.093509 26.2937 0.0339776 26.3886C-0.0255538 26.4836 -4.03689e-05 26.6088 0.093509 26.6692L12.34 34.8094C20.8615 40.0534 27.8734 42 33.9669 42C42.9349 42 49.9085 37.7832 56.7419 33.6483C68.4611 26.557 79.5339 19.8627 99.6938 33.1218C99.7831 33.1822 99.9022 33.1563 99.966 33.07C100.03 32.9837 100.013 32.8585 99.9277 32.7937H99.9234Z" fill="#00bfb3"/>
    <!-- Top wave: Navy -->
    <path class="top-wave" d="M99.9833 23.1558C99.9493 23.0392 99.8345 22.9659 99.7154 22.9918C94.3321 24.1053 87.7964 21.2653 80.878 18.257C69.6393 13.3712 56.9038 7.83361 45.427 17.683C43.7771 19.0986 39.8863 24.1226 39.5419 24.6405C38.5596 26.1166 37.4711 26.8417 36.2209 26.8676C32.3726 26.9539 27.5251 20.2036 22.8349 13.6906C17.6173 6.44382 12.2255 -1.0403 7.75215 0.120733C4.14199 1.05733 1.60765 7.55738 0.000306221 19.9878C-0.0167028 20.1086 0.0640899 20.2208 0.183153 20.2467C0.302215 20.2683 0.417026 20.1992 0.451044 20.0784C2.87907 10.9498 5.61752 6.23233 8.81946 5.64966C13.1142 4.86413 17.9788 11.8001 22.6818 18.503C27.5081 25.3829 32.5002 32.4915 37.4668 32.5778C37.4966 32.5778 37.5263 32.5778 37.5561 32.5778C39.5887 32.5778 41.4384 31.4341 43.2073 29.0818C56.7507 11.1095 68.572 15.8616 80.002 20.4625C86.8524 23.2162 93.32 25.8188 99.8387 23.445C99.9535 23.4018 100.013 23.2809 99.9833 23.1644V23.1558Z" />
  </g>
</svg>